<svg xmlns="http://www.w3.org/2000/svg" width="100%" height="100%" fill="none" viewBox="0 0 80 80"><path fill="url(#paint0_linear_2045_7092)" d="M54.901 19h3.035-2.272 3.355l9.399.001h.028-11.25 11.377l1.025.001h7.167l2.235.001a.15.15 0 0 1-.043.085l-.026.051h-.017l-.007.023a.3.3 0 0 1-.041.077l-.019.026-.072.099a1 1 0 0 0-.041.073h-.017l-.006.02a.4.4 0 0 1-.052.09l-.02.034h-.017l-.006.023c-.013.033-.03.052-.054.08l-.012.023q-.028.052-.066.097a1 1 0 0 0-.042.075h-.017l-.006.022c-.013.033-.031.053-.054.08-.011.023-.011.023-.017.042h-.018l-.005.017a.4.4 0 0 1-.051.076c-.013.017-.013.017-.02.038a.3.3 0 0 1-.043.068.5.5 0 0 0-.06.099h-.018l-.007.017a1 1 0 0 1-.045.085h-.017l-.008.042h-.017l-.006.017a.3.3 0 0 1-.036.058 1 1 0 0 0-.058.092q-.028.044-.06.087c-.014.018-.014.018-.02.044h-.018l-.007.018a.4.4 0 0 1-.034.062l-.014.022-.015.022-.016.024q-.044.067-.09.13-.028.04-.051.083-.027.044-.059.085a4 4 0 0 0-.111.168l-.05.074-.044.07a12 12 0 0 1-.183.274q-.038.06-.08.12l-.096.149q-.044.07-.095.138-.032.045-.06.09c-.085.138-.085.138-.132.202l-.052.077-.025.036-.082.127q-.042.068-.09.134-.03.042-.054.089l-.01.015h-.018l-.002.019c-.008.03-.021.043-.041.066a.6.6 0 0 0-.069.11h-.017l-.006.023a.3.3 0 0 1-.045.08h-.017l-.003.018s-.02.044-.04.067a.5.5 0 0 0-.055.083q-.027.05-.061.094c-.013.018-.013.018-.022.035h-.017l-.008.043h-.018l-.006.017a1 1 0 0 1-.045.085h-.017l-.007.023a.3.3 0 0 1-.043.072 1.4 1.4 0 0 0-.111.174l-.01.016-.01.012h-.017l-.008.043h-.018l-.006.017a1 1 0 0 1-.045.085h-.017l-.007.022a.3.3 0 0 1-.044.076.5.5 0 0 0-.06.097h-.018l-.006.018a1 1 0 0 1-.046.084h-.017l-.007.019a.4.4 0 0 1-.037.067l-.016.025-.017.025-.03.047q-.036.057-.076.111a2 2 0 0 0-.078.117l-.047.073-.018.026-.035.052-.046.071q-.04.06-.08.12l-.096.149q-.045.07-.096.138l-.06.09c-.084.137-.084.137-.132.203a3 3 0 0 0-.107.163q-.043.069-.09.134a3 3 0 0 0-.107.163 2 2 0 0 1-.088.13q-.049.072-.093.146l-.026.039h-.017l-.002.019c-.008.029-.021.043-.041.066a.5.5 0 0 0-.055.083q-.027.05-.06.094c-.014.018-.014.018-.022.035h-.018l-.002.02c-.008.028-.021.042-.04.066q-.019.029-.035.059h-.017l-.002.019c-.008.03-.02.043-.04.066a.6.6 0 0 0-.078.119l-.03.05-.016.025-.014.018h-.017l-.003.019c-.007.03-.021.043-.04.066l-.025.043-.061.102-.013.021-.041.061a1 1 0 0 0-.072.112.2.2 0 0 1-.037.044l-.03.04a1 1 0 0 1-.055.074.2.2 0 0 0-.036.056h-.017l-.006.018a.3.3 0 0 1-.054.076l-.026.03-.013.015-.07.084-.04.049-.02.024-.018.023q-.03.033-.062.063l-.044.047a8 8 0 0 1-.179.184l-.02.02a2 2 0 0 1-.11.102l-.064.056-.12.104q-.06.052-.123.099l-.08.065c-.024.02-.024.02-.05.029l-.043.042-.053.037-.027.018c-.023.013-.023.013-.04.013v.017c-.012.01-.012.01-.029.02l-.019.012-.02.013-.04.025-.02.013-.061.04a3 3 0 0 1-.127.08 2 2 0 0 1-.178.097l-.061.035q-.066.04-.134.073l-.025.013a3 3 0 0 1-.15.071l-.072.036q-.067.033-.137.059l-.058.021-.027.01c-.027.011-.027.011-.053.025a.4.4 0 0 1-.063.024q-.067.022-.133.049-.088.034-.18.059l-.07.024-.034.008a1 1 0 0 0-.087.024q-.176.058-.36.09l-.06.015a1 1 0 0 1-.088.015 2 2 0 0 0-.124.022q-.14.028-.282.04l-.118.014a4 4 0 0 1-.458.022H56.79h11.753-10.366l-.63-.001h-2.512c-.62 0 2.2 0-11.049-.01a.15.15 0 0 1 .043-.094l.017-.043h.017l.007-.018a.6.6 0 0 1 .051-.091l.028-.044.016-.024.044-.07c.06-.09.06-.09.117-.184l.014-.023.013-.023.011-.016h.017l.003-.019a.2.2 0 0 1 .03-.061l.014-.02.013-.019c.026-.036.026-.036.043-.076h.017l.007-.02q.014-.031.035-.059.038-.056.07-.117h.017l.002-.018c.008-.03.022-.044.041-.067l.018-.031c.016-.028.016-.028.034-.045l.008-.034h.017l.007-.02q.014-.031.035-.059a1 1 0 0 0 .047-.076q.054-.095.118-.186.03-.045.055-.09l.014-.022.013-.023.012-.017h.017l.007-.023a.3.3 0 0 1 .037-.072l.016-.024.053-.079q.027-.039.05-.079l.06-.097.07-.111a1 1 0 0 1 .05-.068q.014-.026.026-.05l.026-.046.014-.023.012-.017h.017l.006-.021a.3.3 0 0 1 .043-.074 1 1 0 0 0 .036-.059l.034-.052q.06-.09.113-.185h.017l.007-.022a.3.3 0 0 1 .037-.072l.085-.127q.03-.045.056-.09l.036-.056q.04-.06.076-.121.033-.055.07-.107a1 1 0 0 0 .053-.093h.018l.007-.018c.035-.083.089-.166.144-.238q.025-.037.046-.075.023-.04.05-.079.028-.04.053-.083.042-.068.088-.134a.2.2 0 0 0 .032-.061h.017l.006-.017a1 1 0 0 1 .042-.075q.027-.043.053-.088l.011-.016h.017l.003-.019a.2.2 0 0 1 .03-.061l.014-.02.013-.019q.027-.038.05-.078a1 1 0 0 1 .048-.074 1 1 0 0 0 .053-.082 1 1 0 0 1 .067-.103 1 1 0 0 0 .048-.08l.07-.11.166-.26.085-.132.066-.105q.045-.075.094-.149l.03-.047.045-.069.098-.156a1 1 0 0 1 .05-.068l.012-.022q.033-.063.074-.122.058-.09.113-.18a1 1 0 0 1 .05-.067l.012-.022q.026-.05.057-.096l.053-.084q.026-.043.056-.085a1 1 0 0 0 .063-.104h.017l.003-.019a.14.14 0 0 1 .026-.056q.045-.063.085-.13.03-.049.065-.096a1 1 0 0 0 .034-.055l.01-.02.009-.015h.017l.002-.018c.008-.03.021-.044.04-.067l.026-.043q.02-.034.044-.067l.017-.026.051-.076.017-.026a6 6 0 0 1 .248-.347q.057-.083.121-.158a.2.2 0 0 0 .035-.055h.017l.006-.015q.021-.036.048-.069l.065-.088c.018-.024.018-.024.044-.041l.008-.016c.011-.022.026-.035.044-.052l.033-.04a5 5 0 0 1 .13-.152l.014-.015.031-.039.015-.017h.017l.006-.02c.014-.028.03-.044.054-.066l.04-.048.012-.011h.017l.006-.015a.2.2 0 0 1 .05-.057.4.4 0 0 0 .053-.058l.011-.015h.017l.006-.014a.3.3 0 0 1 .048-.058l.022-.022.023-.022.023-.023.022-.022.02-.02c.017-.014.017-.014.034-.014l.007-.015a.2.2 0 0 1 .035-.046l.016-.015.016-.016.016-.016q.047-.045.098-.089l.074-.066q.06-.057.124-.11l.028-.025a7 7 0 0 1 .315-.259c.018-.014.018-.014.035-.031h.026v-.017l.049-.039.014-.01a.4.4 0 0 1 .058-.037c.02-.01.034-.025.05-.042l.057-.04.015-.01c.038-.026.038-.026.057-.026v-.017c.012-.01.012-.01.03-.02l.017-.01.02-.012.038-.023.017-.01q.023-.016.041-.036l.043-.024.054-.034.09-.058.022-.015.048-.026a1 1 0 0 0 .08-.045l.03-.018.028-.018.047-.028.02-.012.038-.018a1 1 0 0 0 .08-.04q.054-.03.11-.058l.023-.013c.157-.08.157-.08.232-.111q.056-.024.11-.051c.078-.039.16-.066.242-.096l.119-.044.087-.033.044-.016A1 1 0 0 1 53 19.28l.061-.02q.055-.02.11-.035l.017-.004.036-.01.05-.012q.2-.056.405-.094l.032-.006a5 5 0 0 1 .57-.077c.207-.021.413-.022.621-.022"></path><path fill="url(#paint1_linear_2045_7092)" d="M12.142 19a7.4 7.4 0 0 0-6.234 3.384L1 30.042l23.007.039 1.426.011L5.643 61l9.386-.03a7.4 7.4 0 0 0 6.206-3.385l24.74-38.58z"></path><path fill="url(#paint2_linear_2045_7092)" d="M34.69 49.52h3.035-2.272 3.355l9.399.001h.027-11.25 12.513l2.23.001h4.827l2.235.001a.15.15 0 0 1-.043.085l-.026.051h-.017l-.007.023a.3.3 0 0 1-.042.076l-.018.027-.073.099a1 1 0 0 0-.04.073h-.018l-.005.02a.4.4 0 0 1-.052.09c-.012.017-.012.017-.02.034h-.017l-.006.022c-.013.033-.031.053-.054.08l-.012.024c-.018.036-.042.065-.066.097a1 1 0 0 0-.042.075h-.018l-.005.022c-.013.033-.032.053-.055.08l-.017.042h-.017l-.005.017a.4.4 0 0 1-.051.076c-.014.017-.014.017-.02.038a.3.3 0 0 1-.044.068.5.5 0 0 0-.06.099h-.017l-.007.017a1 1 0 0 1-.045.085h-.017l-.009.042h-.017l-.005.017a.3.3 0 0 1-.036.057 1 1 0 0 0-.059.093q-.026.044-.06.087c-.013.018-.013.018-.02.044h-.017l-.008.018a.4.4 0 0 1-.048.084l-.015.022-.106.155q-.026.04-.05.082-.029.044-.06.085a4 4 0 0 0-.11.168l-.05.074-.045.069a12 12 0 0 1-.182.275l-.08.12-.096.148q-.044.072-.096.139-.031.045-.059.09c-.086.138-.086.138-.132.202l-.077.113-.082.127q-.043.068-.09.134a1 1 0 0 0-.054.089l-.011.015h-.018q0 .01-.002.019c-.008.03-.02.043-.04.066a.6.6 0 0 0-.07.11h-.016l-.007.023a.3.3 0 0 1-.045.08h-.017l-.002.018s-.02.044-.04.067a.5.5 0 0 0-.056.083q-.026.05-.06.094c-.014.017-.014.017-.022.035h-.017l-.009.043h-.017l-.007.017a1 1 0 0 1-.045.085h-.017l-.006.022a.3.3 0 0 1-.043.073 1.4 1.4 0 0 0-.112.174l-.01.016-.01.012h-.016l-.009.043h-.017l-.006.017a1 1 0 0 1-.045.085h-.018l-.006.022a.3.3 0 0 1-.045.075.5.5 0 0 0-.06.098h-.017l-.007.018a1 1 0 0 1-.045.084h-.017l-.007.019a.4.4 0 0 1-.038.067l-.016.025-.016.025-.03.047q-.037.057-.076.111a2 2 0 0 0-.078.117l-.048.073-.017.026-.035.051-.047.072-.08.12-.096.149a2 2 0 0 1-.095.138q-.032.045-.06.09c-.085.137-.085.137-.132.203a3 3 0 0 0-.107.162q-.044.069-.09.135a3 3 0 0 0-.108.163 2 2 0 0 1-.087.13q-.049.073-.093.145l-.026.04h-.018c0 .01 0 .01-.002.018-.008.03-.02.044-.04.067a.5.5 0 0 0-.055.083q-.027.05-.061.094c-.013.018-.013.018-.022.035h-.017l-.002.019c-.008.03-.022.043-.04.066q-.019.03-.035.06h-.017l-.003.018c-.008.03-.02.044-.04.067a.6.6 0 0 0-.078.119l-.03.05-.016.025-.014.018h-.017c0 .01 0 .01-.002.019-.008.029-.021.043-.04.066l-.025.043-.062.102-.012.021-.042.061a1 1 0 0 0-.071.112.2.2 0 0 1-.038.044l-.029.04a1 1 0 0 1-.055.074.2.2 0 0 0-.036.056h-.017l-.006.018a.3.3 0 0 1-.055.076l-.026.03-.012.015q-.027.03-.052.062l-.02.022-.038.048-.02.025-.019.022q-.03.034-.061.064l-.044.047a8 8 0 0 1-.18.184l-.02.02a2 2 0 0 1-.11.101l-.063.057-.12.104q-.06.05-.123.099l-.08.065c-.024.02-.024.02-.05.029l-.043.042-.053.037-.027.018c-.023.013-.023.013-.04.013v.017c-.012.01-.012.01-.03.02l-.018.012-.02.013-.04.025-.02.013-.062.04a3 3 0 0 1-.127.08 2 2 0 0 1-.178.097l-.06.034q-.067.04-.135.074l-.025.013a3 3 0 0 1-.149.071l-.072.036q-.067.032-.137.059l-.058.021-.028.01c-.026.01-.026.01-.053.024a.4.4 0 0 1-.062.025 2 2 0 0 0-.133.048q-.09.035-.18.06l-.07.024-.035.008a1 1 0 0 0-.086.024q-.177.058-.36.09l-.06.015a1 1 0 0 1-.088.015 2 2 0 0 0-.124.022q-.14.028-.283.04l-.117.014a4 4 0 0 1-.458.022H36.578h11.753-9.758l-.608-.001h-3.142c-.62 0 2.199 0-11.05-.011a.15.15 0 0 1 .044-.093l.017-.043h.017l.007-.018a1 1 0 0 1 .042-.077l.01-.014q.013-.023.027-.044l.06-.093c.06-.092.06-.092.116-.185l.014-.024.013-.022.012-.016h.017l.003-.019a.2.2 0 0 1 .03-.061l.013-.02.014-.019c.025-.036.025-.036.043-.076h.017l.007-.02q.014-.032.034-.059.039-.057.07-.117h.018c0-.01 0-.01.002-.018.008-.03.021-.044.04-.067l.019-.031c.016-.028.016-.028.033-.045.006-.018.006-.018.009-.034h.017l.007-.02q.014-.032.034-.059a1 1 0 0 0 .047-.076q.055-.095.119-.186.029-.045.055-.09l.013-.022.013-.023.012-.017h.017l.007-.023a.3.3 0 0 1 .038-.072l.069-.103q.027-.039.05-.079.03-.05.06-.097l.035-.055.009-.015.025-.041a1 1 0 0 1 .05-.068l.027-.05.04-.069.011-.017h.017l.006-.022a.3.3 0 0 1 .043-.073q.02-.029.037-.059l.034-.052q.059-.09.112-.185h.017l.007-.023a.3.3 0 0 1 .037-.071l.017-.025.069-.102q.03-.045.056-.09.017-.03.036-.056.04-.06.076-.121l.07-.107q.03-.045.053-.093h.017l.007-.018c.035-.083.09-.166.144-.238q.026-.037.047-.076.023-.039.05-.078l.053-.083a2 2 0 0 1 .088-.134.2.2 0 0 0 .032-.061h.017l.006-.017a1 1 0 0 1 .042-.075l.052-.088.012-.016h.017l.003-.019a.2.2 0 0 1 .03-.061l.014-.02.013-.019q.027-.038.05-.079a1 1 0 0 1 .048-.073 1 1 0 0 0 .052-.082 1 1 0 0 1 .068-.103 1 1 0 0 0 .048-.08l.07-.11.166-.26.045-.07q.02-.032.04-.062l.065-.105.095-.149.03-.047.142-.225a1 1 0 0 1 .051-.068l.011-.022q.034-.063.075-.122.057-.09.112-.18a1 1 0 0 1 .051-.067l.011-.022q.026-.05.058-.096l.052-.084q.026-.043.057-.085a1 1 0 0 0 .062-.104h.018l.003-.019a.14.14 0 0 1 .026-.056q.044-.063.085-.13.03-.05.065-.096l.034-.055.01-.02.008-.015h.017l.003-.018c.008-.03.021-.044.04-.067l.025-.043.044-.067.017-.026.052-.076a6 6 0 0 1 .237-.333l.028-.04q.056-.083.12-.158a.2.2 0 0 0 .035-.056h.018l.006-.014q.021-.036.048-.07.033-.042.065-.087c.018-.024.018-.024.044-.041l.008-.016c.01-.022.026-.035.043-.052l.034-.041.116-.136.014-.015.013-.015.032-.04.015-.017h.017l.006-.018c.013-.03.03-.045.054-.067l.04-.048.011-.011h.017l.007-.015a.2.2 0 0 1 .049-.057.4.4 0 0 0 .053-.058l.012-.015h.017l.006-.014a.3.3 0 0 1 .048-.058l.022-.022.022-.023.023-.022.022-.022.02-.02c.017-.014.017-.014.034-.014l.007-.015a.2.2 0 0 1 .036-.046l.015-.015.016-.016.017-.016q.046-.045.097-.089l.074-.066q.061-.057.125-.111l.027-.024a7 7 0 0 1 .316-.259c.018-.014.018-.014.034-.031h.026v-.017l.05-.039.014-.01a.4.4 0 0 1 .058-.037c.02-.01.033-.026.05-.042l.057-.04.015-.01c.037-.026.037-.026.057-.026v-.017c.012-.01.012-.01.029-.02l.018-.01.02-.012.054-.033a.3.3 0 0 0 .042-.036l.043-.024.053-.034q.045-.03.09-.058l.022-.015c.024-.014.024-.014.049-.026a1 1 0 0 0 .08-.045l.029-.018c.014-.01.014-.01.029-.018l.047-.029.02-.011c.018-.01.018-.01.037-.018q.042-.018.08-.04l.11-.059.024-.012c.157-.08.157-.08.231-.111q.057-.025.111-.051c.077-.039.16-.066.241-.096l.12-.044.087-.033.044-.016a1 1 0 0 1 .118-.036l.06-.02q.055-.02.111-.035l.017-.004.035-.01.05-.012q.202-.056.405-.094l.033-.006a5 5 0 0 1 .569-.077c.207-.021.413-.023.622-.022"></path><path fill="url(#paint3_linear_2045_7092)" d="M44.938 34.12h3.035H45.7h3.356l1.712.001h.028-3.564 3.691l1.026.001h7.166l2.235.001a.15.15 0 0 1-.043.085l-.025.051h-.018l-.006.023a.3.3 0 0 1-.042.077l-.018.026-.073.099a1 1 0 0 0-.04.073h-.018l-.005.02a.4.4 0 0 1-.052.09c-.012.017-.012.017-.02.034h-.018l-.005.023c-.013.032-.032.052-.055.08l-.012.023q-.028.052-.065.097a1 1 0 0 0-.043.075h-.017l-.006.022c-.013.033-.031.053-.054.08-.011.023-.011.023-.017.042h-.017l-.006.017a.4.4 0 0 1-.05.076c-.014.017-.014.017-.021.038a.3.3 0 0 1-.043.068.5.5 0 0 0-.06.099h-.018l-.006.017a1 1 0 0 1-.045.085h-.018l-.008.042h-.017l-.006.017a.3.3 0 0 1-.036.058 1 1 0 0 0-.058.092q-.028.044-.06.087c-.013.018-.013.018-.02.044h-.018l-.007.018a.4.4 0 0 1-.034.062l-.014.022-.015.022-.106.155q-.027.04-.05.082l-.06.085q-.058.083-.111.168l-.05.074-.044.07a12 12 0 0 1-.183.274q-.038.06-.08.12l-.096.149q-.044.07-.095.138l-.06.09c-.085.138-.085.138-.132.203l-.052.076-.024.036-.083.127q-.042.069-.09.134a1 1 0 0 0-.065.104h-.017l-.002.019c-.008.03-.02.043-.04.066a.6.6 0 0 0-.07.11h-.017l-.006.023a.3.3 0 0 1-.045.08h-.017l-.002.018s-.021.044-.041.067a.5.5 0 0 0-.055.083q-.027.05-.06.094c-.014.017-.014.017-.023.035h-.017l-.008.043h-.017l-.007.017a1 1 0 0 1-.045.085h-.017l-.007.023a.3.3 0 0 1-.042.072 1.4 1.4 0 0 0-.112.174l-.01.016-.01.012h-.017l-.008.043h-.017l-.007.017a1 1 0 0 1-.045.085h-.017l-.007.022a.3.3 0 0 1-.044.075.5.5 0 0 0-.06.098h-.018l-.006.018a1 1 0 0 1-.045.084h-.017l-.007.019a.4.4 0 0 1-.038.067l-.016.025-.017.025-.03.047q-.037.057-.075.111a2 2 0 0 0-.079.117l-.047.073-.017.026a16 16 0 0 0-.258.392 2 2 0 0 1-.096.138l-.059.09c-.085.137-.085.137-.132.203a3 3 0 0 0-.108.162q-.042.069-.09.135a3 3 0 0 0-.107.163 2 2 0 0 1-.088.13q-.047.073-.093.145l-.026.04h-.017c0 .01 0 .01-.002.019-.008.029-.02.043-.04.066a.5.5 0 0 0-.055.083q-.028.05-.061.094c-.014.018-.014.018-.022.035h-.017l-.002.02c-.008.028-.022.042-.041.066l-.035.059h-.017c0 .01 0 .01-.002.019-.008.029-.02.043-.04.066a.6.6 0 0 0-.078.119l-.03.05-.016.025-.014.018h-.017l-.002.019c-.008.03-.022.043-.041.066l-.025.043-.061.102-.013.021-.041.061q-.039.055-.072.112a.2.2 0 0 1-.037.044l-.03.04a1 1 0 0 1-.054.074.2.2 0 0 0-.036.056h-.017l-.006.018a.3.3 0 0 1-.055.076l-.026.03-.013.015a3 3 0 0 0-.11.133l-.02.024-.018.023q-.03.032-.062.063l-.044.047a8 8 0 0 1-.179.184l-.02.02a2 2 0 0 1-.11.102l-.063.056-.12.104q-.06.052-.123.099l-.08.065c-.025.02-.025.02-.05.029l-.043.042-.053.037-.028.018c-.022.013-.022.013-.04.013v.017c-.012.01-.012.01-.029.02l-.018.012-.02.013-.041.025-.02.013-.06.04a3 3 0 0 1-.128.08 2 2 0 0 1-.178.097l-.061.035q-.066.04-.134.073l-.025.013a3 3 0 0 1-.149.071l-.073.036q-.067.032-.137.059l-.058.022-.027.01c-.027.01-.027.01-.053.023a.4.4 0 0 1-.062.025q-.068.022-.134.049-.088.034-.18.059l-.07.024-.034.008a1 1 0 0 0-.087.024q-.176.058-.36.09l-.06.015a1 1 0 0 1-.087.015 2 2 0 0 0-.125.022q-.14.028-.282.04l-.117.014a4 4 0 0 1-.458.022h-4.071 4.066-2.071l-.608-.001H45.07c-.62 0 2.199 0-11.05-.01a.15.15 0 0 1 .044-.094l.017-.043h.017l.007-.018a1 1 0 0 1 .042-.076l.009-.015.044-.069.044-.068c.06-.092.06-.092.116-.185l.014-.023.013-.023.011-.016h.018l.002-.019a.2.2 0 0 1 .03-.061l.014-.02.014-.019c.025-.036.025-.036.043-.076h.017l.007-.02a.3.3 0 0 1 .034-.059q.039-.057.07-.117h.018l.002-.018c.008-.03.021-.044.04-.067l.019-.031c.016-.028.016-.028.033-.045.006-.018.006-.018.009-.034h.017l.007-.02a.3.3 0 0 1 .034-.059 1 1 0 0 0 .047-.076q.055-.095.119-.186a2 2 0 0 0 .068-.112l.013-.023.012-.017h.017l.007-.023a.3.3 0 0 1 .037-.072l.017-.024.053-.079q.026-.039.05-.079.03-.05.06-.097l.035-.055.009-.014.025-.042a1 1 0 0 1 .05-.068l.027-.05.026-.046.013-.023.012-.017h.017l.006-.021a.3.3 0 0 1 .043-.074 1 1 0 0 0 .036-.059l.034-.052q.06-.09.113-.185h.017l.007-.022a.3.3 0 0 1 .037-.072l.016-.025.07-.102q.029-.045.055-.09l.037-.056q.04-.06.076-.121.033-.054.069-.107.03-.045.054-.093h.017l.007-.018c.035-.083.09-.166.144-.238q.026-.037.047-.075.023-.04.05-.079l.053-.083q.041-.069.087-.134a.2.2 0 0 0 .033-.061h.017l.006-.017a1 1 0 0 1 .042-.075l.052-.088.012-.016h.017l.002-.019a.2.2 0 0 1 .03-.061l.014-.02.014-.019q.026-.038.05-.078a1 1 0 0 1 .048-.074 1 1 0 0 0 .052-.082 1 1 0 0 1 .068-.103 1 1 0 0 0 .048-.08l.07-.11.166-.26.045-.07.04-.062.065-.105.095-.149.03-.047.044-.07.098-.155a1 1 0 0 1 .05-.068q.007-.011.012-.022.034-.063.075-.122.057-.09.112-.18a1 1 0 0 1 .05-.067q.007-.01.012-.022.026-.05.058-.096l.052-.084q.026-.043.056-.085a1 1 0 0 0 .063-.104h.017l.003-.019a.14.14 0 0 1 .027-.056q.044-.063.085-.13.03-.049.065-.096l.033-.055.011-.02.008-.015h.017l.003-.018c.007-.03.02-.044.04-.067l.025-.043.044-.067.017-.026.052-.076.017-.026a6 6 0 0 1 .248-.347q.056-.083.12-.158a.2.2 0 0 0 .035-.056h.018l.006-.014q.02-.036.048-.069l.065-.088c.018-.024.018-.024.044-.041l.008-.016c.01-.022.026-.035.043-.052l.034-.04q.057-.07.116-.137l.014-.015.044-.054.015-.017h.017l.006-.02c.014-.028.031-.043.055-.066l.04-.047.011-.012h.017l.007-.015a.2.2 0 0 1 .049-.057.4.4 0 0 0 .053-.058l.012-.015h.017l.006-.014a.3.3 0 0 1 .048-.058l.022-.022.022-.022.023-.023.022-.022.02-.02c.017-.014.017-.014.034-.014l.007-.015c.01-.019.02-.031.036-.046l.015-.015.016-.016.017-.016q.046-.045.097-.089l.074-.066a5 5 0 0 1 .152-.135 7 7 0 0 1 .293-.241l.023-.018c.017-.014.017-.014.034-.031h.026v-.017l.05-.039.013-.01a.4.4 0 0 1 .058-.037c.021-.01.034-.025.05-.042l.057-.04.016-.01c.037-.026.037-.026.056-.026v-.017c.013-.01.013-.01.03-.02l.018-.01q.01-.007.02-.012l.037-.023.017-.01a.3.3 0 0 0 .041-.036l.043-.024.054-.034.09-.058.022-.015.049-.026q.04-.021.08-.045l.029-.018.028-.018.048-.029.02-.011c.018-.01.018-.01.037-.018q.041-.018.08-.04.054-.03.11-.058l.024-.013c.156-.08.156-.08.23-.111q.057-.024.112-.051c.077-.039.16-.066.241-.096l.12-.044.13-.049a1 1 0 0 1 .118-.036q.032-.01.062-.02.053-.02.11-.035l.017-.004.035-.01.05-.012a5 5 0 0 1 .405-.094l.033-.006a5 5 0 0 1 .569-.077 6 6 0 0 1 .621-.022"></path><defs><linearGradient id="paint0_linear_2045_7092" x1="6.622" x2="69.548" y1="22.36" y2="68.46" gradientUnits="userSpaceOnUse"><stop stop-color="#00D0FF"></stop><stop offset="0.38" stop-color="#02E0F2"></stop><stop offset="0.428" stop-color="#48DDFF"></stop><stop offset="0.62" stop-color="#B3FFF0"></stop></linearGradient><linearGradient id="paint1_linear_2045_7092" x1="6.622" x2="69.548" y1="22.36" y2="68.46" gradientUnits="userSpaceOnUse"><stop stop-color="#00D0FF"></stop><stop offset="0.38" stop-color="#02E0F2"></stop><stop offset="0.428" stop-color="#48DDFF"></stop><stop offset="0.62" stop-color="#B3FFF0"></stop></linearGradient><linearGradient id="paint2_linear_2045_7092" x1="6.622" x2="69.548" y1="22.36" y2="68.46" gradientUnits="userSpaceOnUse"><stop stop-color="#00D0FF"></stop><stop offset="0.38" stop-color="#02E0F2"></stop><stop offset="0.428" stop-color="#48DDFF"></stop><stop offset="0.62" stop-color="#B3FFF0"></stop></linearGradient><linearGradient id="paint3_linear_2045_7092" x1="6.622" x2="69.548" y1="22.36" y2="68.46" gradientUnits="userSpaceOnUse"><stop stop-color="#00D0FF"></stop><stop offset="0.38" stop-color="#02E0F2"></stop><stop offset="0.428" stop-color="#48DDFF"></stop><stop offset="0.62" stop-color="#B3FFF0"></stop></linearGradient></defs></svg>